# xmcd CD Database Entry
#
# Track frame offsets:
# 150
# 18187
# 37502
# 65424
# 90101
# 120055
# 143732
# 183307
# 207614
# 234103
# 251988
# 282252
# 315824
#
# Disc length: 4641 seconds
#
# Revision: 1
# Processed by: cddbd v1.4PL0 Copyright (c) Steve Scherf et al.
# Submitted via: tcd 2.0b
#
DISCID=96121f0d
DTITLE=Oscar Peterson - swinging cooperations
DYEAR=1900
DGENRE=
TTITLE0=satisfaction
TTITLE1=dream of you
TTITLE2=someday my prince will come
TTITLE3=a time for love
TTITLE4=reunion blues
TTITLE5=when i fall in love
TTITLE6=red top
TTITLE7=younger than springtime
TTITLE8=where do i go from here
TTITLE9=smile
TTITLE10=soft winds
TTITLE11=just squeeze me
TTITLE12=wheatland
EXTD=reunion blues\ngreat connection\n-----------------\nfeat. mil
EXTD=t jackson\nnhp\nlouis hayes\nray brown\n-----------------\n@ 
EXTD=1971, 1972 mps records.\n@1997 motor music gmbh.
EXTT0=
EXTT1=
EXTT2=
EXTT3=
EXTT4=
EXTT5=
EXTT6=
EXTT7=
EXTT8=
EXTT9=
EXTT10=
EXTT11=
EXTT12=
PLAYORDER=
